PathFileType	4	(X/Y/Z)	C:\Users\WrightLab\Desktop\Jo\P1_boxCal22.trc
DataRate	CameraRate	NumFrames	NumMarkers	Units	OrigDataRate	OrigDataStartFrame	OrigNumFrames
100.00	100.00	       12	19	mm	100.00	411	       657
Frame#	Time	Headset_Front			Headset_Back			Headset_Left			Headset_Right			Left_Shoulder			Right_Shoulder			Sternum			C7			Left Elbow			Right Elbow			Left Wrist			Right Wrist			Left ASIS			Right ASIS			S2			Left Knee			Right Knee			Left Ankle			Right Ankle			
		X1	Y1	Z1	X2	Y2	Z2	X3	Y3	Z3	X4	Y4	Z4	X5	Y5	Z5	X6	Y6	Z6	X7	Y7	Z7	X8	Y8	Z8	X9	Y9	Z9	X10	Y10	Z10	X11	Y11	Z11	X12	Y12	Z12	X13	Y13	Z13	X14	Y14	Z14	X15	Y15	Z15	X16	Y16	Z16	X17	Y17	Z17	X18	Y18	Z18	X19	Y19	Z19	

411	4.100	-146.93286	1412.56653	1098.96350	13.86410	970.06689	720.37738													151.40863	813.92065	765.82025	-288.31000	1428.75464	1050.23010	-486.18454	992.27069	998.45227	-275.49622	1499.77441	837.97913	-529.39325	770.51898	1084.34448				-195.00500	882.73090	1063.69629	-49.31998	894.96271	926.27667	-149.82979	1169.98547	1008.44318	-375.64270	1255.45251	1012.37720	-288.78262	1268.53186	802.09595	-81.28036	1280.57898	776.99841	-345.80493	887.48285	769.86676	
412	4.110	-142.50394	1415.17737	1113.19543	15.79890	969.14172	730.87537													151.66982	811.00616	772.46356	-285.08060	1428.49194	1060.92761	-480.94070	990.44287	1008.78766	-271.39453	1498.48535	848.28204	-523.37933	768.68463	1093.66748				-187.88699	882.34967	1075.72986	-42.39082	896.08575	937.73816	-145.19160	1170.05042	1023.09015	-371.16797	1253.70227	1024.33569	-284.15173	1267.82935	814.34338	-76.39215	1279.99548	789.53424	-338.08066	886.25482	782.27405	
413	4.120	-140.76357	1415.57068	1122.91187	17.03293	967.81512	740.48096													151.44191	808.71790	778.18134	-281.91525	1429.61340	1072.05164	-475.45471	988.34528	1019.25049	-267.63846	1497.83875	859.13031	-517.09821	765.81451	1102.13770				-179.72102	881.49957	1087.79053	-33.03859	897.48297	951.99701	-139.82227	1169.99609	1035.10376	-366.73792	1252.60034	1036.37610	-279.72217	1267.24951	826.88763	-72.43633	1280.10986	801.75555	-330.78442	885.64813	794.29883	
414	4.130	-137.76726	1417.65100	1134.81702	18.22721	967.87933	750.45197													150.85091	806.45789	784.07385	-278.33115	1430.36414	1082.89270	-469.35178	987.08929	1029.70313	-263.55411	1497.34595	869.65985	-510.73151	763.73743	1111.23645				-171.76584	881.38361	1100.06360	-26.85753	897.55365	961.58453	-134.24745	1171.14258	1049.19678	-362.41135	1251.83423	1049.05164	-274.88239	1266.55933	838.94354	-67.40277	1280.50623	813.83264	-323.82031	884.67096	806.76642	
415	4.140	-134.54762	1419.93738	1146.64978	18.41778	966.88208	760.41412													150.36896	804.79095	790.07977	-275.11761	1431.52197	1094.40979	-463.57620	985.71655	1040.51270	-259.52054	1497.35303	880.27399	-504.23035	762.24725	1120.34521				-164.47269	881.56445	1112.18994	-19.61995	898.44940	972.58954	-129.56464	1171.82654	1060.39124	-357.49625	1250.85144	1061.02966	-270.03259	1266.60925	851.47235	-62.53091	1281.39966	825.95123	-316.32123	884.12927	819.74237	
416	4.150	-130.77199	1423.97559	1160.73108	19.60327	966.97510	770.53845													148.90295	803.16754	796.09790	-271.91611	1433.25000	1105.56348	-457.39630	984.52057	1051.09656	-255.64803	1497.54980	891.05841	-497.34885	759.77710	1129.62598				-156.20444	882.03955	1124.08972	-12.32578	900.56305	984.86273	-124.79223	1172.78723	1072.09290	-352.95016	1250.55139	1073.09436	-264.91089	1267.24585	863.53052	-57.71688	1282.14880	837.82336	-309.71036	884.80743	832.41956	
417	4.160	-128.05115	1424.89954	1167.95349	20.44492	967.58868	781.21844													147.53703	802.45154	801.67584	-268.69025	1435.09705	1116.43347	-450.50064	983.64868	1061.16113	-251.26691	1497.24158	901.00208	-490.92709	759.22626	1138.43201				-148.88396	883.62952	1136.44055	-5.46471	902.72174	997.41302	-119.93786	1174.87134	1084.68408	-348.19388	1250.33875	1085.03772	-260.59933	1267.89929	875.50067	-52.47702	1282.67371	849.67609	-303.40680	885.54883	844.16296	
418	4.170	-124.32715	1427.59473	1178.86658	21.39425	968.59540	791.77509													144.95477	801.51605	808.45007	-265.11960	1436.28491	1127.19080	-443.58044	983.47388	1071.73315	-247.67673	1496.99036	911.85657	-484.20322	759.04132	1147.33667				-141.74559	884.94434	1147.78748	1.12688	906.12457	1008.99512	-114.82925	1176.40381	1097.45923	-342.99820	1250.49646	1096.13135	-255.55386	1269.55530	886.98389	-47.40460	1284.53992	861.99103	-297.08466	886.42267	856.07196	
419	4.180	-121.00648	1429.97461	1190.11938	22.02681	969.47424	802.11328													143.96680	800.83844	815.44910	-261.40076	1437.72083	1137.66602	-436.76376	983.64227	1081.98206	-243.08391	1496.42932	921.63104	-476.84311	758.63104	1156.23987				-136.01511	887.08545	1160.34436	6.76145	908.97906	1021.10425	-110.00264	1177.27515	1108.06445	-337.87177	1251.40210	1107.53845	-250.68471	1270.43750	898.02130	-42.50637	1286.31836	873.49982	-291.58344	887.59406	867.48175	
420	4.190	-117.91497	1432.39758	1201.98401	22.35948	970.84595	811.60492													142.95143	800.84698	821.55511	-257.50381	1438.49902	1148.14160	-430.19827	984.14441	1093.24353	-239.36029	1496.87964	932.46912	-469.51938	759.23456	1166.83179				-130.28813	889.34985	1171.77429	13.22670	911.86267	1032.95520	-104.42778	1179.07092	1120.12219	-333.33862	1252.59668	1118.45605	-244.69156	1271.44775	908.71368	-36.63073	1288.19946	885.24731	-285.23822	888.77283	878.36536	
421	4.200	-114.82674	1435.56653	1213.55371	23.61236	972.76184	820.85522													142.99332	801.33032	828.13593	-254.47012	1440.19434	1158.34265	-422.85110	985.10291	1103.54871	-234.20757	1497.60498	941.98309	-462.23575	760.12207	1176.54224				-124.58129	891.59729	1183.07031	17.50590	914.35699	1044.98328	-99.71103	1180.55432	1129.23315	-327.53149	1253.87964	1128.75232	-239.72528	1273.16174	919.31305	-31.25126	1290.27856	895.68390	-279.79086	889.45166	888.87006	
422	4.210	-110.81726	1437.32678	1222.91980	25.06292	974.16058	829.94373													142.86922	801.45483	834.74152	-250.84668	1441.51892	1168.59595	-415.96814	985.77405	1114.42017	-229.68182	1499.01526	952.13495	-454.89212	760.92798	1186.74451				-119.27090	893.55310	1194.50085	22.52881	916.45233	1056.43555	-95.92516	1181.01428	1138.45007	-322.37836	1255.64734	1139.10083	-233.80557	1274.74500	928.83484	-25.52976	1291.98792	906.33051	-273.91049	890.06482	899.07257	
